<svg width="80" height="80" fill="none" xmlns="http://www.w3.org/2000/svg"><path d="M13.333 66.667c-1.833 0-3.403-.654-4.71-1.96C7.317 63.4 6.664 61.83 6.667 60V20c0-1.833.653-3.403 1.96-4.71 1.306-1.306 2.875-1.959 4.706-1.956h53.334c1.833 0 3.403.653 4.71 1.96 1.306 1.306 1.959 2.875 1.956 4.706v40c0 1.834-.653 3.404-1.96 4.71-1.306 1.307-2.875 1.96-4.706 1.957H13.333zM40 43.333L13.333 26.668V60h53.334V26.667L40 43.333zm0-6.666L66.667 20H13.333L40 36.667zm-26.667-10V20v40-33.333z" fill="#F44336"/></svg>