<svg width="18" height="19" fill="none" xmlns="http://www.w3.org/2000/svg"><path d="M15.635 11.642l-3.312-1.485-.01-.004a1.124 1.124 0 00-1.119.138L9.483 11.75c-1.084-.527-2.204-1.638-2.73-2.708l1.46-1.737a1.125 1.125 0 00.133-1.113v-.009L6.859 2.865a1.125 1.125 0 00-1.168-.67 3.956 3.956 0 00-3.44 3.93c0 5.583 4.542 10.125 10.125 10.125a3.956 3.956 0 003.93-3.44 1.125 1.125 0 00-.67-1.168zm-3.26 3.483a9.01 9.01 0 01-9-9 2.827 2.827 0 012.452-2.813v.009l1.476 3.305-1.453 1.74a1.125 1.125 0 00-.11 1.158c.637 1.302 1.95 2.605 3.266 3.241a1.125 1.125 0 001.16-.12l1.71-1.457 3.304 1.48h.008a2.827 2.827 0 01-2.813 2.457z" fill="#F44336"/></svg>