<?xml version="1.0" encoding="utf-8"?><svg viewBox="0 0 32 32" xmlns="http://www.w3.org/2000/svg" xmlns:xlink="http://www.w3.org/1999/xlink"><style>:root>svg{display:none}:root>svg:target{display:block}</style><svg fill="none" viewBox="0 0 18 18" id="arrow" xmlns="http://www.w3.org/2000/svg"><path d="M8.578 14.063 3.516 9l5.062-5.063M4.218 9h10.266" stroke="#F44336" stroke-width="1.688" stroke-miterlimit="10" stroke-linecap="square"/></svg><svg fill="none" viewBox="0 0 14 14" id="checkbox" xmlns="http://www.w3.org/2000/svg"><g clip-path="url(#ba)"><path d="M11.716 1.157 4.583 8.29 2.269 5.977 0 8.246l2.314 2.313 2.283 2.284 2.27-2.269L14 3.441l-2.284-2.284z" fill="#fff"/></g><defs><clipPath id="ba"><path fill="#fff" d="M0 0h14v14H0z"/></clipPath></defs></svg><svg fill="none" viewBox="0 0 48 48" id="close" xmlns="http://www.w3.org/2000/svg"><path d="M38 12.82 35.18 10 24 21.18 12.82 10 10 12.82 21.18 24 10 35.18 12.82 38 24 26.82 35.18 38 38 35.18 26.82 24 38 12.82z" fill="#FAFAFA"/></svg><svg fill="none" viewBox="0 0 235 50" id="logo" xmlns="http://www.w3.org/2000/svg"><path d="M26.042 49.5c14.094 0 25.52-10.969 25.52-24.5S40.138.5 26.043.5C11.947.5.52 11.469.52 25s11.426 24.5 25.52 24.5z" fill="#F44336"/><path d="M26.042 1c13.78 0 25 10.77 25 24s-11.22 24-25 24c-13.782 0-25-10.77-25-24s11.218-24 25-24zm0-1C11.656 0 0 11.19 0 25s11.656 25 26.042 25c14.385 0 26.041-11.19 26.041-25S40.427 0 26.042 0z" fill="#000"/><path d="M26.042 39.5c8.341 0 15.104-6.492 15.104-14.5s-6.763-14.5-15.104-14.5c-8.342 0-15.105 6.492-15.105 14.5S17.7 39.5 26.043 39.5z" fill="#fff"/><path d="M26.042 11c8.041 0 14.583 6.28 14.583 14s-6.542 14-14.583 14C18 39 11.458 32.72 11.458 25S18 11 26.042 11zm0-1c-8.625 0-15.625 6.72-15.625 15 0 8.28 7 15 15.625 15s15.625-6.72 15.625-15c0-8.28-7-15-15.625-15z" fill="#000"/><path d="M26 5c6.834-.167 20.5 3.7 20.5 20.5m-20 20C19.667 45.667 6 41.8 6 25" stroke="#000"/><path d="M67.876 34.1c-.563 0-.99-.15-1.281-.46-.292-.31-.448-.72-.448-1.26V18.34h-5.281c-.47 0-.834-.13-1.094-.38-.26-.25-.396-.59-.396-1.03 0-.44.135-.79.396-1.03.26-.24.625-.35 1.094-.35h14.03c.47 0 .834.12 1.095.35.26.23.395.58.395 1.03 0 .45-.135.78-.395 1.03s-.625.38-1.094.38h-5.281v14.04c0 .54-.146.96-.438 1.26-.292.3-.719.46-1.302.46zm12.219 0c-.563 0-.99-.15-1.281-.46-.302-.3-.448-.72-.448-1.26V17.25c0-.55.156-.98.458-1.26.302-.29.74-.43 1.302-.43h6.531c2.094 0 3.709.48 4.844 1.44 1.136.96 1.709 2.31 1.709 4.04 0 1.13-.26 2.1-.771 2.91-.51.81-1.26 1.44-2.24 1.87-.979.43-2.156.65-3.552.65l.24-.39h.895c.74 0 1.386.17 1.938.52s1.031.89 1.448 1.64l2.031 3.61c.219.36.313.72.302 1.07-.02.35-.156.63-.406.84-.25.22-.625.33-1.115.33s-.885-.1-1.187-.3c-.302-.2-.583-.51-.813-.92l-2.74-4.84c-.322-.59-.707-.98-1.145-1.18-.438-.2-1.01-.3-1.688-.3h-2.572v5.82c0 .54-.146.96-.438 1.26-.292.3-.719.46-1.302.46v.01zm1.73-10.01h4.228c1.25 0 2.188-.25 2.834-.74.645-.49.958-1.23.958-2.22 0-.99-.323-1.7-.958-2.2-.646-.49-1.584-.74-2.834-.74h-4.229v5.9zM96.772 34.1c-.437 0-.78-.1-1.041-.29-.26-.19-.417-.45-.48-.77-.052-.32 0-.68.188-1.08l7.156-15.21c.23-.5.521-.86.855-1.08.333-.22.718-.33 1.156-.33.437 0 .791.11 1.125.33.333.22.614.58.854 1.08l7.177 15.21c.198.4.271.76.219 1.09-.052.33-.209.58-.459.77-.25.18-.583.27-1 .27-.51 0-.895-.12-1.177-.35-.281-.23-.531-.59-.739-1.08l-1.761-3.93 1.459.91H98.877l1.458-.91-1.73 3.93c-.228.5-.478.87-.728 1.09-.25.22-.615.34-1.084.34l-.02.01zm7.771-14.92-3.791 8.66-.709-.83h9.042l-.677.83-3.823-8.66h-.052.01zm13.824 14.92c-.521 0-.928-.14-1.209-.42-.281-.28-.416-.68-.416-1.2V17.01c0-.54.135-.95.416-1.23.281-.29.646-.43 1.094-.43.417 0 .729.07.937.22.209.15.459.39.74.74l10.375 12.92h-.708v-12.3c0-.5.135-.89.416-1.17.282-.28.677-.42 1.209-.42.531 0 .916.14 1.187.42.271.28.406.67.406 1.17v15.6c0 .49-.125.87-.375 1.14-.25.28-.593.42-1.031.42-.437 0-.739-.08-.989-.23-.24-.16-.511-.41-.802-.75l-10.344-12.92h.677v12.3c0 .52-.136.92-.406 1.2-.271.28-.667.42-1.188.42l.011-.01zm19.417-.21c-.448 0-.813-.09-1.094-.26a1.293 1.293 0 0 1-.573-.72c-.104-.3-.104-.64 0-1.01.094-.37.302-.76.604-1.16l10.344-13.47v1.07h-9.563c-.51 0-.885-.12-1.156-.36-.26-.24-.396-.59-.396-1.04 0-.45.136-.79.396-1.03s.646-.35 1.156-.35h11.209c.448 0 .812.09 1.093.26.282.17.469.41.573.7.094.29.094.63 0 1.01-.104.38-.302.77-.604 1.17l-10.344 13.44V31.1h9.969c.511 0 .886.12 1.146.35.26.23.396.58.396 1.03 0 .45-.136.8-.396 1.04s-.646.36-1.146.36h-11.614v.01zm17.333.21c-.562 0-.989-.15-1.292-.46-.302-.31-.447-.72-.447-1.26V17.07c0-.55.145-.98.447-1.27.303-.29.73-.44 1.292-.44.563 0 .99.15 1.292.44.302.29.448.72.448 1.27v15.31c0 .54-.146.96-.438 1.26-.291.3-.719.46-1.302.46zm12.24 0c-.563 0-.99-.15-1.292-.46-.302-.3-.448-.72-.448-1.26V18.34h-5.281c-.469 0-.833-.13-1.094-.38-.26-.25-.396-.59-.396-1.03 0-.44.136-.79.396-1.03.261-.24.625-.35 1.094-.35h14.031c.469 0 .834.12 1.094.35.26.23.396.58.396 1.03 0 .45-.136.78-.396 1.03s-.625.38-1.094.38h-5.281v14.04c0 .54-.146.96-.437 1.26-.292.3-.719.46-1.303.46h.011zm12.323-.21c-.594 0-1.052-.15-1.364-.46-.313-.3-.48-.74-.48-1.31V17.33c0-.57.157-1.01.48-1.31.312-.3.77-.46 1.364-.46h6.5c1.334 0 2.479.19 3.417.57.937.38 1.656.93 2.156 1.64.5.71.75 1.56.75 2.55 0 1.11-.333 2.05-1 2.81-.667.76-1.583 1.27-2.739 1.53v-.39c1.333.19 2.375.68 3.114 1.46.74.78 1.115 1.79 1.115 3.04 0 1.63-.573 2.89-1.719 3.78-1.146.89-2.74 1.34-4.781 1.34h-6.813zm1.49-10.56h4.416c1.188 0 2.084-.22 2.667-.66.583-.44.875-1.1.875-1.96 0-.86-.292-1.52-.875-1.96-.583-.44-1.479-.66-2.667-.66h-4.416v5.25-.01zm0 8.03h4.875c1.229 0 2.125-.23 2.708-.69.573-.46.865-1.15.865-2.07 0-.92-.292-1.63-.865-2.08-.583-.45-1.479-.68-2.708-.68h-4.875v5.52zm23.24 2.79c-1.323 0-2.48-.17-3.48-.49-1-.33-1.843-.82-2.531-1.47-.687-.65-1.198-1.46-1.541-2.43-.344-.97-.511-2.1-.511-3.38v-9.33c0-.57.146-1 .448-1.27.302-.28.729-.42 1.292-.42.562 0 .989.14 1.291.42.303.28.448.7.448 1.27v9.31c0 1.65.396 2.88 1.177 3.71.782.83 1.927 1.23 3.427 1.23s2.636-.41 3.417-1.23c.771-.82 1.167-2.06 1.167-3.71v-9.31c0-.57.146-1 .448-1.27.302-.28.729-.42 1.281-.42.552 0 .958.14 1.26.42.302.28.448.7.448 1.27v9.33c0 1.7-.302 3.13-.906 4.29a5.816 5.816 0 0 1-2.698 2.61c-1.187.58-2.667.87-4.417.87h-.02zm18.635 0a17.4 17.4 0 0 1-2.385-.17c-.792-.11-1.542-.29-2.25-.52a8.58 8.58 0 0 1-1.896-.87c-.323-.21-.552-.46-.677-.75a1.6 1.6 0 0 1-.125-.87c.042-.29.167-.54.354-.75.188-.21.427-.35.719-.4.292-.05.604.03.948.23.792.45 1.635.78 2.521.99.885.21 1.812.31 2.791.31 1.427 0 2.469-.23 3.115-.69.646-.46.979-1.05.979-1.78 0-.61-.229-1.08-.687-1.43-.459-.35-1.25-.63-2.375-.86l-2.98-.6c-1.718-.35-2.989-.93-3.833-1.76-.844-.82-1.26-1.91-1.26-3.26 0-.85.177-1.62.541-2.31.365-.69.875-1.29 1.532-1.79.656-.5 1.448-.89 2.354-1.16.916-.27 1.916-.4 3.021-.4 1.104 0 2.114.13 3.083.39.979.26 1.854.64 2.625 1.14.292.19.479.43.583.7.094.28.125.55.073.82-.052.27-.177.5-.375.69-.198.19-.448.3-.739.34-.292.04-.636-.05-1.021-.26a8.172 8.172 0 0 0-2.031-.78 9.796 9.796 0 0 0-2.219-.23c-.792 0-1.542.11-2.136.34-.593.23-1.052.54-1.364.95-.313.41-.479.89-.479 1.44 0 .62.218 1.12.645 1.49.438.37 1.178.66 2.219.87l2.948.6c1.792.36 3.115.94 3.99 1.72s1.312 1.82 1.312 3.12c0 .83-.177 1.59-.531 2.26a4.915 4.915 0 0 1-1.521 1.74c-.667.48-1.448.86-2.375 1.12-.917.26-1.958.39-3.114.39l.02-.01z" fill="#fff"/><circle cx="26" cy="14" r="1" fill="#000"/><circle cx="38.001" cy="25" r="1" fill="#000"/><circle cx="26" cy="36" r="1" fill="#000"/><circle cx="15" cy="25" r="1" fill="#000"/><circle cx="18" cy="17" r="1" fill="#000"/><circle cx="34.001" cy="17" r="1" fill="#000"/><circle cx="34.001" cy="33" r="1" fill="#000"/><circle cx="18" cy="33" r="1" fill="#000"/><circle cx="26" cy="25" r="5" fill="#000"/></svg><svg fill="none" viewBox="0 0 80 80" id="mail" xmlns="http://www.w3.org/2000/svg"><path d="M13.333 66.667c-1.833 0-3.403-.654-4.71-1.96C7.317 63.4 6.664 61.83 6.667 60V20c0-1.833.653-3.403 1.96-4.71 1.306-1.306 2.875-1.959 4.706-1.956h53.334c1.833 0 3.403.653 4.71 1.96 1.306 1.306 1.959 2.875 1.956 4.706v40c0 1.834-.653 3.404-1.96 4.71-1.306 1.307-2.875 1.96-4.706 1.957H13.333zM40 43.333 13.333 26.668V60h53.334V26.667L40 43.333zm0-6.666L66.667 20H13.333L40 36.667zm-26.667-10V20v40-33.333z" fill="#F44336"/></svg><svg fill="none" viewBox="0 0 48 48" id="mdi_close" xmlns="http://www.w3.org/2000/svg"><path d="M38 12.82 35.18 10 24 21.18 12.82 10 10 12.82 21.18 24 10 35.18 12.82 38 24 26.82 35.18 38 38 35.18 26.82 24 38 12.82z" fill="#616161"/></svg><svg fill="none" viewBox="0 0 18 19" id="phone" xmlns="http://www.w3.org/2000/svg"><path d="m15.635 11.642-3.312-1.485-.01-.004a1.124 1.124 0 0 0-1.119.138L9.483 11.75c-1.084-.527-2.204-1.638-2.73-2.708l1.46-1.737a1.125 1.125 0 0 0 .133-1.113v-.009L6.859 2.865a1.125 1.125 0 0 0-1.168-.67 3.956 3.956 0 0 0-3.44 3.93c0 5.583 4.542 10.125 10.125 10.125a3.956 3.956 0 0 0 3.93-3.44 1.125 1.125 0 0 0-.67-1.168zm-3.26 3.483a9.01 9.01 0 0 1-9-9 2.827 2.827 0 0 1 2.452-2.813v.009l1.476 3.305-1.453 1.74a1.125 1.125 0 0 0-.11 1.158c.637 1.302 1.95 2.605 3.266 3.241a1.125 1.125 0 0 0 1.16-.12l1.71-1.457 3.304 1.48h.008a2.827 2.827 0 0 1-2.813 2.457z" fill="#F44336"/></svg><svg fill="none" viewBox="0 0 13 12" id="star" xmlns="http://www.w3.org/2000/svg"><path d="m2.898 11.083.948-4.098L.666 4.23l4.2-.364L6.5 0l1.633 3.865 4.2.364-3.179 2.756.948 4.098L6.5 8.91l-3.602 2.173z" fill="#FFEB3B"/></svg><svg fill="none" viewBox="0 0 14 14" id="watch" xmlns="http://www.w3.org/2000/svg"><path d="M7 12.833A5.833 5.833 0 1 1 7 1.167a5.833 5.833 0 0 1 0 11.666zm0-1.166a4.667 4.667 0 1 0 0-9.335 4.667 4.667 0 0 0 0 9.335zM7.583 7h2.334v1.167h-3.5V4.083h1.166V7z" fill="#fff"/></svg></svg>