<svg width="235" height="50" viewBox="0 0 235 50" fill="none" xmlns="http://www.w3.org/2000/svg">
<path d="M26.0417 49.5C40.1365 49.5 51.5625 38.531 51.5625 25C51.5625 11.469 40.1365 0.5 26.0417 0.5C11.9469 0.5 0.520874 11.469 0.520874 25C0.520874 38.531 11.9469 49.5 26.0417 49.5Z" fill="#F44336"/>
<path d="M26.0417 1C39.8229 1 51.0417 11.77 51.0417 25C51.0417 38.23 39.8229 49 26.0417 49C12.2604 49 1.04167 38.23 1.04167 25C1.04167 11.77 12.2604 1 26.0417 1ZM26.0417 0C11.6562 0 0 11.19 0 25C0 38.81 11.6562 50 26.0417 50C40.4271 50 52.0833 38.81 52.0833 25C52.0833 11.19 40.4271 0 26.0417 0Z" fill="black"/>
<path d="M26.0417 39.5C34.3835 39.5 41.1458 33.0081 41.1458 25C41.1458 16.9919 34.3835 10.5 26.0417 10.5C17.6999 10.5 10.9375 16.9919 10.9375 25C10.9375 33.0081 17.6999 39.5 26.0417 39.5Z" fill="white"/>
<path d="M26.0416 11C34.0833 11 40.625 17.28 40.625 25C40.625 32.72 34.0833 39 26.0416 39C18 39 11.4583 32.72 11.4583 25C11.4583 17.28 18 11 26.0416 11ZM26.0416 10C17.4166 10 10.4166 16.72 10.4166 25C10.4166 33.28 17.4166 40 26.0416 40C34.6666 40 41.6666 33.28 41.6666 25C41.6666 16.72 34.6666 10 26.0416 10Z" fill="black"/>
<path d="M26.0005 4.99999C32.8338 4.83333 46.5005 8.69999 46.5005 25.5" stroke="black"/>
<path d="M26.5005 45.5C19.6672 45.6667 6.00049 41.8 6.00049 25" stroke="black"/>
<path d="M67.876 34.1C67.3135 34.1 66.8864 33.95 66.5947 33.64C66.3031 33.33 66.1468 32.92 66.1468 32.38V18.34H60.8656C60.3968 18.34 60.0322 18.21 59.7718 17.96C59.5114 17.71 59.376 17.37 59.376 16.93C59.376 16.49 59.5114 16.14 59.7718 15.9C60.0322 15.66 60.3968 15.55 60.8656 15.55H74.8968C75.3656 15.55 75.7301 15.67 75.9906 15.9C76.251 16.13 76.3864 16.48 76.3864 16.93C76.3864 17.38 76.251 17.71 75.9906 17.96C75.7301 18.21 75.3656 18.34 74.8968 18.34H69.6156V32.38C69.6156 32.92 69.4697 33.34 69.1781 33.64C68.8864 33.94 68.4593 34.1 67.876 34.1Z" fill="white"/>
<path d="M80.095 34.1C79.5325 34.1 79.1054 33.95 78.8138 33.64C78.5117 33.34 78.3658 32.92 78.3658 32.38V17.25C78.3658 16.7 78.5221 16.27 78.8242 15.99C79.1263 15.7 79.5638 15.56 80.1263 15.56H86.6575C88.7513 15.56 90.3658 16.04 91.5013 17C92.6367 17.96 93.2096 19.31 93.2096 21.04C93.2096 22.17 92.9492 23.14 92.4388 23.95C91.9283 24.76 91.1783 25.39 90.1992 25.82C89.22 26.25 88.0429 26.47 86.6471 26.47L86.8867 26.08H87.7825C88.5221 26.08 89.1679 26.25 89.72 26.6C90.2721 26.95 90.7513 27.49 91.1679 28.24L93.1992 31.85C93.4179 32.21 93.5117 32.57 93.5013 32.92C93.4804 33.27 93.345 33.55 93.095 33.76C92.845 33.98 92.47 34.09 91.9804 34.09C91.4908 34.09 91.095 33.99 90.7929 33.79C90.4908 33.59 90.2096 33.28 89.9804 32.87L87.2408 28.03C86.9179 27.44 86.5325 27.05 86.095 26.85C85.6575 26.65 85.0846 26.55 84.4075 26.55H81.8346V32.37C81.8346 32.91 81.6888 33.33 81.3971 33.63C81.1054 33.93 80.6783 34.09 80.095 34.09V34.1ZM81.8242 24.09H86.0533C87.3033 24.09 88.2408 23.84 88.8867 23.35C89.5325 22.86 89.845 22.12 89.845 21.13C89.845 20.14 89.5221 19.43 88.8867 18.93C88.2408 18.44 87.3033 18.19 86.0533 18.19H81.8242V24.09Z" fill="white"/>
<path d="M96.7724 34.1C96.3349 34.1 95.9912 34 95.7308 33.81C95.4704 33.62 95.3141 33.36 95.2516 33.04C95.1995 32.72 95.2516 32.36 95.4391 31.96L102.595 16.75C102.825 16.25 103.116 15.89 103.45 15.67C103.783 15.45 104.168 15.34 104.606 15.34C105.043 15.34 105.397 15.45 105.731 15.67C106.064 15.89 106.345 16.25 106.585 16.75L113.762 31.96C113.96 32.36 114.033 32.72 113.981 33.05C113.929 33.38 113.772 33.63 113.522 33.82C113.272 34 112.939 34.09 112.522 34.09C112.012 34.09 111.627 33.97 111.345 33.74C111.064 33.51 110.814 33.15 110.606 32.66L108.845 28.73L110.304 29.64H98.8766L100.335 28.73L98.6058 32.66C98.3766 33.16 98.1266 33.53 97.8766 33.75C97.6266 33.97 97.262 34.09 96.7933 34.09L96.7724 34.1ZM104.543 19.18L100.752 27.84L100.043 27.01H109.085L108.408 27.84L104.585 19.18H104.533H104.543Z" fill="white"/>
<path d="M118.367 34.1C117.846 34.1 117.439 33.96 117.158 33.68C116.877 33.4 116.742 33 116.742 32.48V17.01C116.742 16.47 116.877 16.06 117.158 15.78C117.439 15.49 117.804 15.35 118.252 15.35C118.669 15.35 118.981 15.42 119.189 15.57C119.398 15.72 119.648 15.96 119.929 16.31L130.304 29.23H129.596V16.93C129.596 16.43 129.731 16.04 130.012 15.76C130.294 15.48 130.689 15.34 131.221 15.34C131.752 15.34 132.137 15.48 132.408 15.76C132.679 16.04 132.814 16.43 132.814 16.93V32.53C132.814 33.02 132.689 33.4 132.439 33.67C132.189 33.95 131.846 34.09 131.408 34.09C130.971 34.09 130.669 34.01 130.419 33.86C130.179 33.7 129.908 33.45 129.617 33.11L119.273 20.19H119.95V32.49C119.95 33.01 119.814 33.41 119.544 33.69C119.273 33.97 118.877 34.11 118.356 34.11L118.367 34.1Z" fill="white"/>
<path d="M137.784 33.89C137.336 33.89 136.971 33.8 136.69 33.63C136.409 33.46 136.221 33.22 136.117 32.91C136.013 32.61 136.013 32.27 136.117 31.9C136.211 31.53 136.419 31.14 136.721 30.74L147.065 17.27V18.34H137.502C136.992 18.34 136.617 18.22 136.346 17.98C136.086 17.74 135.95 17.39 135.95 16.94C135.95 16.49 136.086 16.15 136.346 15.91C136.606 15.67 136.992 15.56 137.502 15.56H148.711C149.159 15.56 149.523 15.65 149.804 15.82C150.086 15.99 150.273 16.23 150.377 16.52C150.471 16.81 150.471 17.15 150.377 17.53C150.273 17.91 150.075 18.3 149.773 18.7L139.429 32.14V31.1H149.398C149.909 31.1 150.284 31.22 150.544 31.45C150.804 31.68 150.94 32.03 150.94 32.48C150.94 32.93 150.804 33.28 150.544 33.52C150.284 33.76 149.898 33.88 149.398 33.88H137.784V33.89Z" fill="white"/>
<path d="M155.117 34.1C154.555 34.1 154.128 33.95 153.825 33.64C153.523 33.33 153.378 32.92 153.378 32.38V17.07C153.378 16.52 153.523 16.09 153.825 15.8C154.128 15.51 154.555 15.36 155.117 15.36C155.68 15.36 156.107 15.51 156.409 15.8C156.711 16.09 156.857 16.52 156.857 17.07V32.38C156.857 32.92 156.711 33.34 156.419 33.64C156.128 33.94 155.7 34.1 155.117 34.1Z" fill="white"/>
<path d="M167.357 34.1C166.794 34.1 166.367 33.95 166.065 33.64C165.763 33.34 165.617 32.92 165.617 32.38V18.34H160.336C159.867 18.34 159.503 18.21 159.242 17.96C158.982 17.71 158.846 17.37 158.846 16.93C158.846 16.49 158.982 16.14 159.242 15.9C159.503 15.66 159.867 15.55 160.336 15.55H174.367C174.836 15.55 175.201 15.67 175.461 15.9C175.721 16.13 175.857 16.48 175.857 16.93C175.857 17.38 175.721 17.71 175.461 17.96C175.201 18.21 174.836 18.34 174.367 18.34H169.086V32.38C169.086 32.92 168.94 33.34 168.649 33.64C168.357 33.94 167.93 34.1 167.346 34.1H167.357Z" fill="white"/>
<path d="M179.68 33.89C179.086 33.89 178.628 33.74 178.316 33.43C178.003 33.13 177.836 32.69 177.836 32.12V17.33C177.836 16.76 177.993 16.32 178.316 16.02C178.628 15.72 179.086 15.56 179.68 15.56H186.18C187.514 15.56 188.659 15.75 189.597 16.13C190.534 16.51 191.253 17.06 191.753 17.77C192.253 18.48 192.503 19.33 192.503 20.32C192.503 21.43 192.17 22.37 191.503 23.13C190.836 23.89 189.92 24.4 188.764 24.66V24.27C190.097 24.46 191.139 24.95 191.878 25.73C192.618 26.51 192.993 27.52 192.993 28.77C192.993 30.4 192.42 31.66 191.274 32.55C190.128 33.44 188.534 33.89 186.493 33.89H179.691H179.68ZM181.17 23.33H185.586C186.774 23.33 187.67 23.11 188.253 22.67C188.836 22.23 189.128 21.57 189.128 20.71C189.128 19.85 188.836 19.19 188.253 18.75C187.67 18.31 186.774 18.09 185.586 18.09H181.17V23.34V23.33ZM181.17 31.36H186.045C187.274 31.36 188.17 31.13 188.753 30.67C189.326 30.21 189.618 29.52 189.618 28.6C189.618 27.68 189.326 26.97 188.753 26.52C188.17 26.07 187.274 25.84 186.045 25.84H181.17V31.35V31.36Z" fill="white"/>
<path d="M204.41 34.15C203.087 34.15 201.93 33.98 200.93 33.66C199.93 33.33 199.087 32.84 198.399 32.19C197.712 31.54 197.201 30.73 196.858 29.76C196.514 28.79 196.347 27.66 196.347 26.38V17.05C196.347 16.48 196.493 16.05 196.795 15.78C197.097 15.5 197.524 15.36 198.087 15.36C198.649 15.36 199.076 15.5 199.378 15.78C199.681 16.06 199.826 16.48 199.826 17.05V26.36C199.826 28.01 200.222 29.24 201.003 30.07C201.785 30.9 202.93 31.3 204.43 31.3C205.93 31.3 207.066 30.89 207.847 30.07C208.618 29.25 209.014 28.01 209.014 26.36V17.05C209.014 16.48 209.16 16.05 209.462 15.78C209.764 15.5 210.191 15.36 210.743 15.36C211.295 15.36 211.701 15.5 212.003 15.78C212.305 16.06 212.451 16.48 212.451 17.05V26.38C212.451 28.08 212.149 29.51 211.545 30.67C210.941 31.83 210.045 32.7 208.847 33.28C207.66 33.86 206.18 34.15 204.43 34.15H204.41Z" fill="white"/>
<path d="M223.045 34.15C222.254 34.15 221.452 34.09 220.66 33.98C219.868 33.87 219.118 33.69 218.41 33.46C217.702 33.23 217.077 32.94 216.514 32.59C216.191 32.38 215.962 32.13 215.837 31.84C215.712 31.55 215.67 31.25 215.712 30.97C215.754 30.68 215.879 30.43 216.066 30.22C216.254 30.01 216.493 29.87 216.785 29.82C217.077 29.77 217.389 29.85 217.733 30.05C218.525 30.5 219.368 30.83 220.254 31.04C221.139 31.25 222.066 31.35 223.045 31.35C224.472 31.35 225.514 31.12 226.16 30.66C226.806 30.2 227.139 29.61 227.139 28.88C227.139 28.27 226.91 27.8 226.452 27.45C225.993 27.1 225.202 26.82 224.077 26.59L221.097 25.99C219.379 25.64 218.108 25.06 217.264 24.23C216.42 23.41 216.004 22.32 216.004 20.97C216.004 20.12 216.181 19.35 216.545 18.66C216.91 17.97 217.42 17.37 218.077 16.87C218.733 16.37 219.525 15.98 220.431 15.71C221.347 15.44 222.347 15.31 223.452 15.31C224.556 15.31 225.566 15.44 226.535 15.7C227.514 15.96 228.389 16.34 229.16 16.84C229.452 17.03 229.639 17.27 229.743 17.54C229.837 17.82 229.868 18.09 229.816 18.36C229.764 18.63 229.639 18.86 229.441 19.05C229.243 19.24 228.993 19.35 228.702 19.39C228.41 19.43 228.066 19.34 227.681 19.13C227.014 18.77 226.337 18.51 225.65 18.35C224.962 18.19 224.222 18.12 223.431 18.12C222.639 18.12 221.889 18.23 221.295 18.46C220.702 18.69 220.243 19 219.931 19.41C219.618 19.82 219.452 20.3 219.452 20.85C219.452 21.47 219.67 21.97 220.097 22.34C220.535 22.71 221.275 23 222.316 23.21L225.264 23.81C227.056 24.17 228.379 24.75 229.254 25.53C230.129 26.31 230.566 27.35 230.566 28.65C230.566 29.48 230.389 30.24 230.035 30.91C229.681 31.59 229.181 32.17 228.514 32.65C227.847 33.13 227.066 33.51 226.139 33.77C225.222 34.03 224.181 34.16 223.025 34.16L223.045 34.15Z" fill="white"/>
<circle cx="26.0005" cy="14" r="1" fill="black"/>
<circle cx="38.0006" cy="25" r="1" fill="black"/>
<circle cx="26.0005" cy="36" r="1" fill="black"/>
<circle cx="15" cy="25" r="1" fill="black"/>
<circle cx="18.0002" cy="17" r="1" fill="black"/>
<circle cx="34.0006" cy="17" r="1" fill="black"/>
<circle cx="34.0006" cy="33" r="1" fill="black"/>
<circle cx="18.0002" cy="33" r="1" fill="black"/>
<circle cx="26" cy="25" r="5" fill="black"/>
</svg>
