<svg width="80" height="80" viewBox="0 0 80 80" fill="none" xmlns="http://www.w3.org/2000/svg">
<path d="M13.3333 66.6668C11.5 66.6668 9.92996 66.0135 8.6233 64.7068C7.31663 63.4002 6.66441 61.8313 6.66663 60.0002V20.0002C6.66663 18.1668 7.31997 16.5968 8.62663 15.2902C9.9333 13.9835 11.5022 13.3313 13.3333 13.3335H66.6666C68.5 13.3335 70.07 13.9868 71.3766 15.2935C72.6833 16.6002 73.3355 18.1691 73.3333 20.0002V60.0002C73.3333 61.8335 72.68 63.4035 71.3733 64.7102C70.0666 66.0168 68.4977 66.6691 66.6666 66.6668H13.3333ZM40 43.3335L13.3333 26.6668V60.0002H66.6666V26.6668L40 43.3335ZM40 36.6668L66.6666 20.0002H13.3333L40 36.6668ZM13.3333 26.6668V20.0002V60.0002V26.6668Z" fill="#F44336"/>
</svg>
