<svg width="18" height="19" viewBox="0 0 18 19" fill="none" xmlns="http://www.w3.org/2000/svg">
<path d="M15.6354 11.6417L12.323 10.1574L12.3138 10.1532C12.1419 10.0796 11.9543 10.0501 11.768 10.0673C11.5818 10.0845 11.4028 10.1478 11.2472 10.2516C11.2289 10.2637 11.2113 10.2769 11.1945 10.291L9.48305 11.75C8.39883 11.2233 7.27946 10.1124 6.75282 9.04225L8.21391 7.30482C8.22798 7.28725 8.24133 7.26967 8.25399 7.25068C8.35554 7.0955 8.41716 6.91763 8.43335 6.73288C8.44954 6.54814 8.41981 6.36225 8.3468 6.19178V6.18334L6.85829 2.86529C6.76178 2.64259 6.59583 2.45707 6.38522 2.33643C6.1746 2.21579 5.93062 2.1665 5.68969 2.19592C4.73694 2.32129 3.8624 2.78919 3.22941 3.51223C2.59643 4.23528 2.24828 5.16401 2.25001 6.12498C2.25001 11.7078 6.79219 16.25 12.375 16.25C13.336 16.2517 14.2647 15.9036 14.9878 15.2706C15.7108 14.6376 16.1787 13.763 16.3041 12.8103C16.3335 12.5694 16.2844 12.3255 16.1638 12.1149C16.0433 11.9043 15.858 11.7383 15.6354 11.6417ZM12.375 15.125C9.98886 15.1224 7.70119 14.1733 6.01392 12.4861C4.32666 10.7988 3.37761 8.51113 3.37501 6.12498C3.37236 5.43837 3.61973 4.77427 4.07091 4.25671C4.5221 3.73915 5.14625 3.40351 5.8268 3.31248C5.82653 3.31529 5.82653 3.31811 5.8268 3.32092L7.30337 6.6256L5.85001 8.36514C5.83525 8.38211 5.82185 8.40021 5.80993 8.41928C5.70412 8.58164 5.64205 8.76859 5.62973 8.96199C5.61741 9.1554 5.65526 9.34871 5.73962 9.52318C6.37665 10.8261 7.68938 12.129 9.00633 12.7653C9.18209 12.8489 9.37652 12.8854 9.57062 12.8714C9.76473 12.8573 9.95187 12.7931 10.1138 12.6851C10.1318 12.673 10.1492 12.6598 10.1658 12.6458L11.8751 11.1875L15.1798 12.6676H15.1875C15.0976 13.3491 14.7624 13.9745 14.2448 14.4268C13.7271 14.8791 13.0624 15.1273 12.375 15.125Z" fill="#F44336"/>
</svg>
