<svg width="14" height="14" viewBox="0 0 14 14" fill="none" xmlns="http://www.w3.org/2000/svg">
<path d="M7.00002 12.8334C3.77827 12.8334 1.16669 10.2218 1.16669 7.00002C1.16669 3.77827 3.77827 1.16669 7.00002 1.16669C10.2218 1.16669 12.8334 3.77827 12.8334 7.00002C12.8334 10.2218 10.2218 12.8334 7.00002 12.8334ZM7.00002 11.6667C8.2377 11.6667 9.42468 11.175 10.2999 10.2999C11.175 9.42468 11.6667 8.2377 11.6667 7.00002C11.6667 5.76234 11.175 4.57536 10.2999 3.70019C9.42468 2.82502 8.2377 2.33335 7.00002 2.33335C5.76234 2.33335 4.57536 2.82502 3.70019 3.70019C2.82502 4.57536 2.33335 5.76234 2.33335 7.00002C2.33335 8.2377 2.82502 9.42468 3.70019 10.2999C4.57536 11.175 5.76234 11.6667 7.00002 11.6667ZM7.58335 7.00002H9.91669V8.16669H6.41669V4.08335H7.58335V7.00002Z" fill="white"/>
</svg>
